<mxfile host="app.diagrams.net" agent="Mozilla/5.0 (Windows NT 10.0; Win64; x64) AppleWebKit/537.36 (KHTML, like Gecko) Chrome/128.0.0.0 Safari/537.36 Edg/128.0.0.0" version="24.7.10">
  <diagram name="Page-1" id="CgsRahXGUWlc7hti90gQ">
    <mxGraphModel dx="1092" dy="623" grid="1" gridSize="10" guides="1" tooltips="1" connect="1" arrows="1" fold="1" page="1" pageScale="1" pageWidth="1100" pageHeight="850" math="0" shadow="0">
      <root>
        <mxCell id="0" />
        <mxCell id="1" parent="0" />
        <mxCell id="khkLhZtb6q7VWuO8inpu-4" style="edgeStyle=orthogonalEdgeStyle;rounded=0;orthogonalLoop=1;jettySize=auto;html=1;entryX=0.5;entryY=0;entryDx=0;entryDy=0;" edge="1" parent="1" source="khkLhZtb6q7VWuO8inpu-1" target="khkLhZtb6q7VWuO8inpu-3">
          <mxGeometry relative="1" as="geometry" />
        </mxCell>
        <mxCell id="khkLhZtb6q7VWuO8inpu-1" value="LAS" style="html=1;dashed=0;whiteSpace=wrap;shape=partialRectangle;right=0;" vertex="1" parent="1">
          <mxGeometry x="120" y="200" width="80" height="40" as="geometry" />
        </mxCell>
        <mxCell id="khkLhZtb6q7VWuO8inpu-5" style="edgeStyle=orthogonalEdgeStyle;rounded=0;orthogonalLoop=1;jettySize=auto;html=1;entryX=0.5;entryY=0;entryDx=0;entryDy=0;" edge="1" parent="1" source="khkLhZtb6q7VWuO8inpu-2" target="khkLhZtb6q7VWuO8inpu-3">
          <mxGeometry relative="1" as="geometry" />
        </mxCell>
        <mxCell id="khkLhZtb6q7VWuO8inpu-2" value="P4O" style="html=1;dashed=0;whiteSpace=wrap;shape=partialRectangle;right=0;" vertex="1" parent="1">
          <mxGeometry x="240" y="200" width="80" height="40" as="geometry" />
        </mxCell>
        <mxCell id="khkLhZtb6q7VWuO8inpu-7" style="edgeStyle=orthogonalEdgeStyle;rounded=0;orthogonalLoop=1;jettySize=auto;html=1;entryX=0.5;entryY=0;entryDx=0;entryDy=0;" edge="1" parent="1" source="khkLhZtb6q7VWuO8inpu-3" target="khkLhZtb6q7VWuO8inpu-6">
          <mxGeometry relative="1" as="geometry" />
        </mxCell>
        <mxCell id="khkLhZtb6q7VWuO8inpu-3" value="Ingest" style="shape=ellipse;html=1;dashed=0;whiteSpace=wrap;perimeter=ellipsePerimeter;" vertex="1" parent="1">
          <mxGeometry x="180" y="280" width="80" height="80" as="geometry" />
        </mxCell>
        <mxCell id="khkLhZtb6q7VWuO8inpu-9" style="edgeStyle=orthogonalEdgeStyle;rounded=0;orthogonalLoop=1;jettySize=auto;html=1;" edge="1" parent="1" source="khkLhZtb6q7VWuO8inpu-6" target="khkLhZtb6q7VWuO8inpu-8">
          <mxGeometry relative="1" as="geometry" />
        </mxCell>
        <mxCell id="khkLhZtb6q7VWuO8inpu-6" value="UDP" style="html=1;dashed=0;whiteSpace=wrap;shape=partialRectangle;right=0;" vertex="1" parent="1">
          <mxGeometry x="180" y="400" width="80" height="40" as="geometry" />
        </mxCell>
        <mxCell id="khkLhZtb6q7VWuO8inpu-11" style="edgeStyle=orthogonalEdgeStyle;rounded=0;orthogonalLoop=1;jettySize=auto;html=1;" edge="1" parent="1" source="khkLhZtb6q7VWuO8inpu-8" target="khkLhZtb6q7VWuO8inpu-10">
          <mxGeometry relative="1" as="geometry" />
        </mxCell>
        <mxCell id="khkLhZtb6q7VWuO8inpu-8" value="Map" style="shape=ellipse;html=1;dashed=0;whiteSpace=wrap;perimeter=ellipsePerimeter;" vertex="1" parent="1">
          <mxGeometry x="320" y="380" width="80" height="80" as="geometry" />
        </mxCell>
        <mxCell id="khkLhZtb6q7VWuO8inpu-13" style="edgeStyle=orthogonalEdgeStyle;rounded=0;orthogonalLoop=1;jettySize=auto;html=1;" edge="1" parent="1" source="khkLhZtb6q7VWuO8inpu-10" target="khkLhZtb6q7VWuO8inpu-14">
          <mxGeometry relative="1" as="geometry">
            <mxPoint x="570" y="420" as="targetPoint" />
          </mxGeometry>
        </mxCell>
        <mxCell id="khkLhZtb6q7VWuO8inpu-10" value="Process" style="shape=ellipse;html=1;dashed=0;whiteSpace=wrap;perimeter=ellipsePerimeter;" vertex="1" parent="1">
          <mxGeometry x="440" y="380" width="80" height="80" as="geometry" />
        </mxCell>
        <mxCell id="khkLhZtb6q7VWuO8inpu-17" style="edgeStyle=orthogonalEdgeStyle;rounded=0;orthogonalLoop=1;jettySize=auto;html=1;entryX=0;entryY=0.5;entryDx=0;entryDy=0;" edge="1" parent="1" source="khkLhZtb6q7VWuO8inpu-14" target="khkLhZtb6q7VWuO8inpu-16">
          <mxGeometry relative="1" as="geometry" />
        </mxCell>
        <mxCell id="khkLhZtb6q7VWuO8inpu-14" value="Extract" style="shape=ellipse;html=1;dashed=0;whiteSpace=wrap;perimeter=ellipsePerimeter;" vertex="1" parent="1">
          <mxGeometry x="560" y="380" width="80" height="80" as="geometry" />
        </mxCell>
        <mxCell id="khkLhZtb6q7VWuO8inpu-19" style="edgeStyle=orthogonalEdgeStyle;rounded=0;orthogonalLoop=1;jettySize=auto;html=1;entryX=0.5;entryY=1;entryDx=0;entryDy=0;" edge="1" parent="1" source="khkLhZtb6q7VWuO8inpu-16" target="khkLhZtb6q7VWuO8inpu-18">
          <mxGeometry relative="1" as="geometry" />
        </mxCell>
        <mxCell id="khkLhZtb6q7VWuO8inpu-16" value="CSV" style="shape=parallelogram;perimeter=parallelogramPerimeter;whiteSpace=wrap;html=1;dashed=0;" vertex="1" parent="1">
          <mxGeometry x="680" y="395" width="100" height="50" as="geometry" />
        </mxCell>
        <mxCell id="khkLhZtb6q7VWuO8inpu-18" value="Sharepoint" style="html=1;dashed=0;whiteSpace=wrap;shape=partialRectangle;right=0;" vertex="1" parent="1">
          <mxGeometry x="690" y="300" width="80" height="40" as="geometry" />
        </mxCell>
        <mxCell id="khkLhZtb6q7VWuO8inpu-21" style="edgeStyle=orthogonalEdgeStyle;rounded=0;orthogonalLoop=1;jettySize=auto;html=1;entryX=0.5;entryY=0;entryDx=0;entryDy=0;" edge="1" parent="1" source="khkLhZtb6q7VWuO8inpu-20" target="khkLhZtb6q7VWuO8inpu-18">
          <mxGeometry relative="1" as="geometry" />
        </mxCell>
        <mxCell id="khkLhZtb6q7VWuO8inpu-22" value="Access via AD" style="edgeLabel;html=1;align=center;verticalAlign=middle;resizable=0;points=[];" vertex="1" connectable="0" parent="khkLhZtb6q7VWuO8inpu-21">
          <mxGeometry x="-0.1643" relative="1" as="geometry">
            <mxPoint as="offset" />
          </mxGeometry>
        </mxCell>
        <mxCell id="khkLhZtb6q7VWuO8inpu-20" value="User" style="html=1;dashed=0;whiteSpace=wrap;" vertex="1" parent="1">
          <mxGeometry x="690" y="200" width="80" height="40" as="geometry" />
        </mxCell>
      </root>
    </mxGraphModel>
  </diagram>
</mxfile>
